<svg width="44" height="34" viewBox="0 0 44 34" fill="none" xmlns="http://www.w3.org/2000/svg">
<path d="M27.1758 0.138672C26.1016 0.138672 25.2227 0.236328 24.5391 0.431641C23.5625 0.692057 22.6348 1.11523 21.7559 1.70117C20.3236 0.854818 19.168 0.382812 18.2891 0.285156C17.5404 0.1875 16.4499 0.171224 15.0176 0.236328H14.1387C13.5853 0.236328 13.0319 0.333984 12.4785 0.529297C12.1204 0.659505 11.5996 0.88737 10.916 1.21289C10.265 1.50586 9.74414 1.73372 9.35352 1.89648C6.91211 2.84049 4.35677 3.3125 1.6875 3.3125H0.125V18.3516L3.88477 20.207L14.1875 31.6816C15.1966 32.6908 16.5801 33.1465 18.3379 33.0488C19.7376 32.9837 20.9909 32.6094 22.0977 31.9258C23.0742 31.3398 24.7995 30.2005 27.2734 28.5078L30.8379 26.0664L30.9355 25.9688C31.554 25.3503 32.0098 24.4876 32.3027 23.3809L38.3086 20.3535L42.8008 18.8398L43.875 18.498V3.3125H42.3125C39.7083 3.3125 37.153 2.82422 34.6465 1.84766C34.2559 1.6849 33.7188 1.45703 33.0352 1.16406C32.3841 0.838542 31.8958 0.610677 31.5703 0.480469C30.9844 0.285156 30.4147 0.1875 29.8613 0.1875L27.1758 0.138672ZM27.2246 3.26367C27.5176 3.26367 28.0059 3.26367 28.6895 3.26367L29.7637 3.3125C29.8288 3.3125 30.3822 3.52409 31.4238 3.94727L33.5234 4.77734C35.6393 5.59115 38.0482 6.0957 40.75 6.29102V16.252L37.1367 17.4727H37.0391L32.2051 19.9141C31.9121 19.1328 31.5215 18.4818 31.0332 17.9609L30.9355 17.8145L23.3184 8.43945L17.8984 12.834C17.2474 13.2897 16.5964 13.5013 15.9453 13.4688C15.457 13.4688 14.8711 13.306 14.1875 12.9805C14.0573 12.9154 13.9271 12.834 13.7969 12.7363L13.6016 12.5898L20.8281 6.58398C21.8372 5.60742 22.7161 4.85872 23.4648 4.33789C24.1159 3.91471 24.7507 3.62174 25.3691 3.45898C25.8249 3.32878 26.4434 3.26367 27.2246 3.26367ZM16.3359 3.3125C16.987 3.3125 17.5078 3.32878 17.8984 3.36133C18.0612 3.39388 18.3216 3.49154 18.6797 3.6543C18.9076 3.78451 19.0703 3.86589 19.168 3.89844L8.76758 12.541L10.2812 14.1035C10.6068 14.3965 10.9486 14.6732 11.3066 14.9336C11.7949 15.2591 12.2995 15.5521 12.8203 15.8125C13.862 16.3008 14.9199 16.5449 15.9941 16.5449C17.3613 16.5775 18.5983 16.2031 19.7051 15.4219L22.8301 12.834L28.5918 19.9141L28.6895 20.0605C29.2103 20.5814 29.4707 21.1999 29.4707 21.916C29.4707 22.5996 29.2103 23.2018 28.6895 23.7227V23.7715L28.4453 23.918L26.3945 21.1348L23.8555 22.9902L25.8574 25.6758L23.8066 27.0918L21.707 24.2598L19.168 26.1152L21.1699 28.8008L20.4863 29.2402C20.2259 29.403 19.8678 29.5495 19.4121 29.6797C18.9889 29.8099 18.582 29.8913 18.1914 29.9238C17.4102 29.9564 16.8405 29.8262 16.4824 29.5332L5.98438 17.9121L5.78906 17.668L3.25 16.3984V6.29102C5.98438 6.0957 8.39323 5.60742 10.4766 4.82617L12.8691 3.89844C13.7155 3.54036 14.1712 3.36133 14.2363 3.36133L16.3359 3.3125Z" fill="#3F51B5"/>
</svg>
