<svg width="44" height="39" viewBox="0 0 44 39" fill="none" xmlns="http://www.w3.org/2000/svg">
<path d="M40.75 0.986328L38.2598 2.79297L37.2832 3.47656C36.4694 4.02995 35.5905 4.59961 34.6465 5.18555C33.3444 5.9668 32.026 6.69922 30.6914 7.38281C28.1523 8.6849 25.6621 9.72656 23.2207 10.5078C20.291 11.4193 17.6543 11.875 15.3105 11.875H0.125V26.1328L0.173828 26.377L3.29883 37.3145L3.64062 38.4375H13.1133L12.5762 36.4355L10.0371 27.5H15.3105C17.6217 27.5 20.2422 27.972 23.1719 28.916C25.5807 29.6973 28.071 30.7389 30.6426 32.041C32.498 32.985 34.321 34.0267 36.1113 35.166C37.0228 35.7194 37.7389 36.1914 38.2598 36.582L40.75 38.3887V24.082C41.6615 23.7565 42.4102 23.2031 42.9961 22.4219C43.582 21.6081 43.875 20.6966 43.875 19.6875C43.875 18.6784 43.582 17.7832 42.9961 17.002C42.4102 16.1882 41.6615 15.6185 40.75 15.293V0.986328ZM37.625 6.79688V32.5293L37.0879 32.1875C36.3717 31.6667 35.7533 31.2598 35.2324 30.9668C34.3535 30.4134 33.2956 29.8275 32.0586 29.209C25.9388 26.084 20.5026 24.4727 15.75 24.375V15C20.4701 14.9023 25.9225 13.2747 32.1074 10.1172C33.3444 9.4987 34.3861 8.92904 35.2324 8.4082C35.7533 8.08268 36.3717 7.67578 37.0879 7.1875L37.625 6.79688ZM3.25 15H12.625V24.375H3.25V15ZM3.78711 27.5H6.76562L8.96289 35.3125H5.98438L3.78711 27.5Z" fill="#3F51B5"/>
</svg>
