<svg width="50" height="49" viewBox="0 0 50 49" fill="none" xmlns="http://www.w3.org/2000/svg">
<mask id="path-1-outside-1_1_230" maskUnits="userSpaceOnUse" x="-1" y="-1" width="52" height="51" fill="black">
<rect fill="white" x="-1" y="-1" width="52" height="51"/>
<path d="M25 0.125C20.5859 0.125 16.4844 1.23828 12.6953 3.46484C9.02344 5.61328 6.11328 8.52344 3.96484 12.1953C1.73828 15.9844 0.625 20.0859 0.625 24.5C0.625 28.9141 1.73828 33.0156 3.96484 36.8047C6.11328 40.4766 9.02344 43.3867 12.6953 45.5352C16.4844 47.7617 20.5859 48.875 25 48.875C29.4141 48.875 33.5156 47.7617 37.3047 45.5352C40.9766 43.3867 43.8867 40.4766 46.0352 36.8047C48.2617 33.0156 49.375 28.9141 49.375 24.5C49.375 20.0859 48.2617 15.9844 46.0352 12.1953C43.8867 8.52344 40.9766 5.61328 37.3047 3.46484C33.5156 1.23828 29.4141 0.125 25 0.125ZM25 2C29.0625 2 32.8516 3.01563 36.3672 5.04688C39.7656 7.03906 42.4609 9.73438 44.4531 13.1328C46.4844 16.6484 47.5 20.4375 47.5 24.5C47.5 28.5625 46.4844 32.3516 44.4531 35.8672C42.4609 39.2656 39.7656 41.9609 36.3672 43.9531C32.8516 45.9844 29.0625 47 25 47C20.9375 47 17.1484 45.9844 13.6328 43.9531C10.2344 41.9609 7.53906 39.2656 5.54688 35.8672C3.51562 32.3516 2.5 28.5625 2.5 24.5C2.5 20.4375 3.51562 16.6484 5.54688 13.1328C7.53906 9.73438 10.2344 7.03906 13.6328 5.04688C17.1484 3.01563 20.9375 2 25 2ZM25 5.75C21.6016 5.75 18.457 6.60937 15.5664 8.32812C12.7148 9.96875 10.4688 12.2148 8.82812 15.0664C7.10938 17.957 6.25 21.1016 6.25 24.5C6.25 27.8984 7.10938 31.043 8.82812 33.9336C10.4688 36.7852 12.7148 39.0312 15.5664 40.6719C18.457 42.3906 21.6016 43.25 25 43.25C28.3984 43.25 31.543 42.3906 34.4336 40.6719C37.2852 39.0312 39.5312 36.7852 41.1719 33.9336C42.8906 31.043 43.75 27.8984 43.75 24.5C43.75 21.1016 42.8906 17.957 41.1719 15.0664C39.5312 12.2148 37.2852 9.96875 34.4336 8.32812C31.543 6.60937 28.3984 5.75 25 5.75ZM25 9.5C27.7344 9.5 30.2344 10.1836 32.5 11.5508C34.8047 12.8789 36.6211 14.6953 37.9492 17C39.3164 19.2656 40 21.7656 40 24.5C40 27.2344 39.3164 29.7539 37.9492 32.0586C36.6211 34.3242 34.8047 36.1406 32.5 37.5078C30.2344 38.8359 27.7344 39.5 25 39.5C22.2656 39.5 19.7461 38.8359 17.4414 37.5078C15.1758 36.1406 13.3594 34.3242 11.9922 32.0586C10.6641 29.7539 10 27.2344 10 24.5C10 21.7656 10.6641 19.2656 11.9922 17C13.3594 14.6953 15.1758 12.8789 17.4414 11.5508C19.7461 10.1836 22.2656 9.5 25 9.5ZM25 13.25C22.9688 13.25 21.0938 13.7578 19.375 14.7734C17.6562 15.7891 16.2891 17.1562 15.2734 18.875C14.2578 20.5938 13.75 22.4688 13.75 24.5C13.75 26.5312 14.2578 28.4062 15.2734 30.125C16.2891 31.8438 17.6562 33.2109 19.375 34.2266C21.0938 35.2422 22.9688 35.75 25 35.75C27.0312 35.75 28.9062 35.2422 30.625 34.2266C32.3438 33.2109 33.7109 31.8438 34.7266 30.125C35.7422 28.4062 36.25 26.5312 36.25 24.5C36.25 22.4688 35.7422 20.5938 34.7266 18.875C33.7109 17.1562 32.3438 15.7891 30.625 14.7734C28.9062 13.7578 27.0312 13.25 25 13.25ZM25 17C26.3672 17 27.6172 17.332 28.75 17.9961C29.9219 18.6602 30.8398 19.5781 31.5039 20.75C32.168 21.8828 32.5 23.1328 32.5 24.5C32.5 25.8672 32.168 27.1367 31.5039 28.3086C30.8398 29.4414 29.9219 30.3398 28.75 31.0039C27.6172 31.668 26.3672 32 25 32C23.6328 32 22.3633 31.668 21.1914 31.0039C20.0586 30.3398 19.1602 29.4414 18.4961 28.3086C17.832 27.1367 17.5 25.8672 17.5 24.5C17.5 23.1328 17.832 21.8828 18.4961 20.75C19.1602 19.5781 20.0586 18.6602 21.1914 17.9961C22.3633 17.332 23.6328 17 25 17ZM25 20.75C23.9453 20.75 23.0469 21.1211 22.3047 21.8633C21.6016 22.5664 21.25 23.4453 21.25 24.5C21.25 25.5547 21.6016 26.4531 22.3047 27.1953C23.0469 27.8984 23.9453 28.25 25 28.25C26.0547 28.25 26.9336 27.8984 27.6367 27.1953C28.3789 26.4531 28.75 25.5547 28.75 24.5C28.75 23.4453 28.3789 22.5664 27.6367 21.8633C26.9336 21.1211 26.0547 20.75 25 20.75Z"/>
</mask>
<path d="M12.6953 3.46484L13.2003 4.32796L13.2019 4.32701L12.6953 3.46484ZM3.96484 12.1953L4.82701 12.7019L4.82796 12.7003L3.96484 12.1953ZM3.96484 36.8047L4.82796 36.2997L4.82701 36.2981L3.96484 36.8047ZM12.6953 45.5352L13.2019 44.673L13.2003 44.672L12.6953 45.5352ZM37.3047 45.5352L36.7997 44.672L36.7981 44.673L37.3047 45.5352ZM46.0352 36.8047L45.173 36.2981L45.172 36.2997L46.0352 36.8047ZM46.0352 12.1953L45.172 12.7003L45.173 12.7019L46.0352 12.1953ZM37.3047 3.46484L36.7981 4.32701L36.7997 4.32796L37.3047 3.46484ZM36.3672 5.04688L36.8729 4.18416L36.8675 4.18101L36.3672 5.04688ZM44.4531 13.1328L45.319 12.6325L45.3158 12.6271L44.4531 13.1328ZM44.4531 35.8672L45.3158 36.3729L45.319 36.3675L44.4531 35.8672ZM36.3672 43.9531L36.8675 44.819L36.8729 44.8158L36.3672 43.9531ZM13.6328 43.9531L13.1271 44.8158L13.1325 44.819L13.6328 43.9531ZM5.54688 35.8672L4.68099 36.3675L4.68418 36.3729L5.54688 35.8672ZM5.54688 13.1328L4.68416 12.6271L4.68101 12.6325L5.54688 13.1328ZM13.6328 5.04688L13.1325 4.18099L13.1271 4.18418L13.6328 5.04688ZM15.5664 8.32812L16.0651 9.1949L16.0713 9.19133L16.0775 9.18766L15.5664 8.32812ZM8.82812 15.0664L9.68766 15.5775L9.69133 15.5713L9.6949 15.5651L8.82812 15.0664ZM8.82812 33.9336L9.6949 33.4349L9.69133 33.4287L9.68766 33.4225L8.82812 33.9336ZM15.5664 40.6719L16.0775 39.8123L16.0713 39.8087L16.0651 39.8051L15.5664 40.6719ZM34.4336 40.6719L33.9349 39.8051L33.9287 39.8087L33.9225 39.8123L34.4336 40.6719ZM41.1719 33.9336L40.3123 33.4225L40.3087 33.4287L40.3051 33.4349L41.1719 33.9336ZM41.1719 15.0664L40.3051 15.5651L40.3087 15.5713L40.3123 15.5775L41.1719 15.0664ZM34.4336 8.32812L33.9225 9.18766L33.9287 9.19133L33.9349 9.1949L34.4336 8.32812ZM32.5 11.5508L31.9833 12.407L31.992 12.4122L32.0007 12.4172L32.5 11.5508ZM37.9492 17L37.0828 17.4993L37.0878 17.508L37.093 17.5167L37.9492 17ZM37.9492 32.0586L37.0892 31.5484L37.0865 31.5529L37.9492 32.0586ZM32.5 37.5078L33.0057 38.3705L33.0102 38.3679L32.5 37.5078ZM17.4414 37.5078L16.9247 38.364L16.9334 38.3692L16.9421 38.3742L17.4414 37.5078ZM11.9922 32.0586L11.1258 32.5579L11.1308 32.5666L11.136 32.5753L11.9922 32.0586ZM11.9922 17L11.1321 16.4898L11.1295 16.4943L11.9922 17ZM17.4414 11.5508L17.9471 12.4135L17.9516 12.4108L17.4414 11.5508ZM19.375 14.7734L18.8663 13.9125L19.375 14.7734ZM15.2734 30.125L14.4125 30.6337L15.2734 30.125ZM30.625 14.7734L31.1337 13.9125L30.625 14.7734ZM28.75 17.9961L28.2443 18.8588L28.2506 18.8625L28.257 18.8661L28.75 17.9961ZM31.5039 20.75L30.6339 21.243L30.6375 21.2494L30.6412 21.2557L31.5039 20.75ZM31.5039 28.3086L32.3666 28.8143L32.3703 28.808L32.3739 28.8016L31.5039 28.3086ZM28.75 31.0039L28.257 30.1339L28.2506 30.1375L28.2443 30.1412L28.75 31.0039ZM21.1914 31.0039L20.6857 31.8666L20.692 31.8703L20.6984 31.8739L21.1914 31.0039ZM18.4961 28.3086L17.6261 28.8016L17.6297 28.808L17.6334 28.8143L18.4961 28.3086ZM18.4961 20.75L19.3588 21.2557L19.3625 21.2494L19.3661 21.243L18.4961 20.75ZM21.1914 17.9961L20.6984 17.1261L20.692 17.1297L20.6857 17.1334L21.1914 17.9961ZM22.3047 27.1953L21.5787 27.8831L21.5973 27.9027L21.6169 27.9213L22.3047 27.1953ZM27.6367 21.8633L26.9108 22.551L26.9294 22.5706L26.949 22.5892L27.6367 21.8633ZM25 -0.875C20.4086 -0.875 16.132 0.285452 12.1887 2.60268L13.2019 4.32701C16.8367 2.19111 20.7633 1.125 25 1.125V-0.875ZM12.1903 2.60173C8.37031 4.83683 5.33683 7.87031 3.10173 11.6903L4.82796 12.7003C6.88973 9.17657 9.67657 6.38973 13.2003 4.32796L12.1903 2.60173ZM3.10268 11.6887C0.785452 15.632 -0.375 19.9086 -0.375 24.5H1.625C1.625 20.2633 2.69111 16.3367 4.82701 12.7019L3.10268 11.6887ZM-0.375 24.5C-0.375 29.0914 0.785452 33.368 3.10268 37.3113L4.82701 36.2981C2.69111 32.6633 1.625 28.7367 1.625 24.5H-0.375ZM3.10173 37.3097C5.33683 41.1297 8.37031 44.1632 12.1903 46.3983L13.2003 44.672C9.67657 42.6103 6.88973 39.8234 4.82796 36.2997L3.10173 37.3097ZM12.1887 46.3973C16.132 48.7145 20.4086 49.875 25 49.875V47.875C20.7633 47.875 16.8367 46.8089 13.2019 44.673L12.1887 46.3973ZM25 49.875C29.5914 49.875 33.868 48.7145 37.8113 46.3973L36.7981 44.673C33.1633 46.8089 29.2367 47.875 25 47.875V49.875ZM37.8097 46.3983C41.6297 44.1632 44.6632 41.1297 46.8983 37.3097L45.172 36.2997C43.1103 39.8234 40.3234 42.6103 36.7997 44.672L37.8097 46.3983ZM46.8973 37.3113C49.2145 33.368 50.375 29.0914 50.375 24.5H48.375C48.375 28.7367 47.3089 32.6633 45.173 36.2981L46.8973 37.3113ZM50.375 24.5C50.375 19.9086 49.2145 15.632 46.8973 11.6887L45.173 12.7019C47.3089 16.3367 48.375 20.2633 48.375 24.5H50.375ZM46.8983 11.6903C44.6632 7.87031 41.6297 4.83683 37.8097 2.60173L36.7997 4.32796C40.3234 6.38973 43.1103 9.17657 45.172 12.7003L46.8983 11.6903ZM37.8113 2.60268C33.868 0.285452 29.5914 -0.875 25 -0.875V1.125C29.2367 1.125 33.1633 2.19111 36.7981 4.32701L37.8113 2.60268ZM25 3C28.887 3 32.5035 3.96941 35.8669 5.91274L36.8675 4.18101C33.1997 2.06184 29.238 1 25 1V3ZM35.8615 5.90957C39.1123 7.81526 41.6847 10.3877 43.5904 13.6385L45.3158 12.6271C43.2371 9.08109 40.4189 6.26287 36.8729 4.18418L35.8615 5.90957ZM43.5873 13.6331C45.5306 16.9965 46.5 20.613 46.5 24.5H48.5C48.5 20.262 47.4382 16.3003 45.319 12.6325L43.5873 13.6331ZM46.5 24.5C46.5 28.387 45.5306 32.0035 43.5873 35.3669L45.319 36.3675C47.4382 32.6997 48.5 28.738 48.5 24.5H46.5ZM43.5904 35.3615C41.6847 38.6123 39.1123 41.1847 35.8615 43.0904L36.8729 44.8158C40.4189 42.7371 43.2371 39.9189 45.3158 36.3729L43.5904 35.3615ZM35.8669 43.0873C32.5035 45.0306 28.887 46 25 46V48C29.238 48 33.1997 46.9382 36.8675 44.819L35.8669 43.0873ZM25 46C21.113 46 17.4965 45.0306 14.1331 43.0873L13.1325 44.819C16.8003 46.9382 20.762 48 25 48V46ZM14.1385 43.0904C10.8877 41.1847 8.31526 38.6123 6.40957 35.3615L4.68418 36.3729C6.76287 39.9189 9.58109 42.7371 13.1271 44.8158L14.1385 43.0904ZM6.41274 35.3669C4.46941 32.0035 3.5 28.387 3.5 24.5H1.5C1.5 28.738 2.56184 32.6997 4.68101 36.3675L6.41274 35.3669ZM3.5 24.5C3.5 20.613 4.46941 16.9965 6.41274 13.6331L4.68101 12.6325C2.56184 16.3003 1.5 20.262 1.5 24.5H3.5ZM6.40957 13.6385C8.31526 10.3877 10.8877 7.81526 14.1385 5.90957L13.1271 4.18418C9.58109 6.26287 6.76287 9.08109 4.68418 12.6271L6.40957 13.6385ZM14.1331 5.91274C17.4965 3.96941 21.113 3 25 3V1C20.762 1 16.8003 2.06184 13.1325 4.18101L14.1331 5.91274ZM25 4.75C21.4237 4.75 18.1023 5.65689 15.0553 7.46859L16.0775 9.18766C18.8118 7.56186 21.7795 6.75 25 6.75V4.75ZM15.0677 7.46135C12.0631 9.19002 9.69002 11.5631 7.96135 14.5677L9.6949 15.5651C11.2475 12.8666 13.3666 10.7475 16.0651 9.1949L15.0677 7.46135ZM7.96859 14.5553C6.15689 17.6023 5.25 20.9237 5.25 24.5H7.25C7.25 21.2795 8.06186 18.3118 9.68766 15.5775L7.96859 14.5553ZM5.25 24.5C5.25 28.0763 6.15689 31.3977 7.96859 34.4447L9.68766 33.4225C8.06186 30.6882 7.25 27.7205 7.25 24.5H5.25ZM7.96135 34.4323C9.69002 37.4369 12.0631 39.81 15.0677 41.5387L16.0651 39.8051C13.3666 38.2525 11.2475 36.1334 9.6949 33.4349L7.96135 34.4323ZM15.0553 41.5314C18.1023 43.3431 21.4237 44.25 25 44.25V42.25C21.7795 42.25 18.8118 41.4381 16.0775 39.8123L15.0553 41.5314ZM25 44.25C28.5763 44.25 31.8977 43.3431 34.9447 41.5314L33.9225 39.8123C31.1882 41.4381 28.2205 42.25 25 42.25V44.25ZM34.9323 41.5387C37.9369 39.81 40.31 37.4369 42.0387 34.4323L40.3051 33.4349C38.7525 36.1334 36.6334 38.2525 33.9349 39.8051L34.9323 41.5387ZM42.0314 34.4447C43.8431 31.3977 44.75 28.0763 44.75 24.5H42.75C42.75 27.7205 41.9381 30.6882 40.3123 33.4225L42.0314 34.4447ZM44.75 24.5C44.75 20.9237 43.8431 17.6023 42.0314 14.5553L40.3123 15.5775C41.9381 18.3118 42.75 21.2795 42.75 24.5H44.75ZM42.0387 14.5677C40.31 11.5631 37.9369 9.19002 34.9323 7.46135L33.9349 9.1949C36.6334 10.7475 38.7525 12.8666 40.3051 15.5651L42.0387 14.5677ZM34.9447 7.46859C31.8977 5.65689 28.5763 4.75 25 4.75V6.75C28.2205 6.75 31.1882 7.56186 33.9225 9.18766L34.9447 7.46859ZM25 10.5C27.5586 10.5 29.879 11.1371 31.9833 12.407L33.0167 10.6946C30.5898 9.23008 27.9101 8.5 25 8.5V10.5ZM32.0007 12.4172C34.1528 13.6574 35.8426 15.3472 37.0828 17.4993L38.8156 16.5007C37.3996 14.0434 35.4566 12.1004 32.9993 10.6844L32.0007 12.4172ZM37.093 17.5167C38.3629 19.621 39 21.9414 39 24.5H41C41 21.5899 40.2699 18.9102 38.8054 16.4833L37.093 17.5167ZM39 24.5C39 27.0587 38.3628 29.4014 37.0892 31.5484L38.8093 32.5688C40.27 30.1064 41 27.4101 41 24.5H39ZM37.0865 31.5529C35.8458 33.6694 34.152 35.3651 31.9898 36.6478L33.0102 38.3679C35.4574 36.9161 37.3964 34.9791 38.8119 32.5643L37.0865 31.5529ZM31.9943 36.6451C29.8885 37.8795 27.5642 38.5 25 38.5V40.5C27.9045 40.5 30.5803 39.7923 33.0057 38.3705L31.9943 36.6451ZM25 38.5C22.4358 38.5 20.0892 37.8795 17.9407 36.6414L16.9421 38.3742C19.403 39.7924 22.0955 40.5 25 40.5V38.5ZM17.9581 36.6516C15.8315 35.3684 14.1316 33.6685 12.8484 31.5419L11.136 32.5753C12.5871 34.98 14.52 36.9129 16.9247 38.364L17.9581 36.6516ZM12.8586 31.5593C11.6205 29.4108 11 27.0642 11 24.5H9C9 27.4045 9.7076 30.097 11.1258 32.5579L12.8586 31.5593ZM11 24.5C11 21.9358 11.6205 19.6115 12.8549 17.5057L11.1295 16.4943C9.70767 18.9197 9 21.5955 9 24.5H11ZM12.8522 17.5102C14.1349 15.348 15.8306 13.6542 17.9471 12.4135L16.9357 10.6881C14.5209 12.1036 12.5839 14.0426 11.1321 16.4898L12.8522 17.5102ZM17.9516 12.4108C20.0986 11.1372 22.4413 10.5 25 10.5V8.5C22.0899 8.5 19.3936 9.22999 16.9312 10.6907L17.9516 12.4108ZM25 12.25C22.7931 12.25 20.7419 12.8042 18.8663 13.9125L19.8837 15.6344C21.4456 14.7114 23.1444 14.25 25 14.25V12.25ZM18.8663 13.9125C17.0023 15.014 15.514 16.5023 14.4125 18.3663L16.1344 19.3837C17.0642 17.8102 18.3102 16.5642 19.8837 15.6344L18.8663 13.9125ZM14.4125 18.3663C13.3042 20.2419 12.75 22.2931 12.75 24.5H14.75C14.75 22.6444 15.2114 20.9456 16.1344 19.3837L14.4125 18.3663ZM12.75 24.5C12.75 26.7069 13.3042 28.7581 14.4125 30.6337L16.1344 29.6163C15.2114 28.0544 14.75 26.3556 14.75 24.5H12.75ZM14.4125 30.6337C15.514 32.4977 17.0023 33.986 18.8663 35.0875L19.8837 33.3656C18.3102 32.4358 17.0642 31.1898 16.1344 29.6163L14.4125 30.6337ZM18.8663 35.0875C20.7419 36.1958 22.7931 36.75 25 36.75V34.75C23.1444 34.75 21.4456 34.2886 19.8837 33.3656L18.8663 35.0875ZM25 36.75C27.2069 36.75 29.2581 36.1958 31.1337 35.0875L30.1163 33.3656C28.5544 34.2886 26.8556 34.75 25 34.75V36.75ZM31.1337 35.0875C32.9977 33.986 34.486 32.4977 35.5875 30.6337L33.8656 29.6163C32.9358 31.1898 31.6898 32.4358 30.1163 33.3656L31.1337 35.0875ZM35.5875 30.6337C36.6958 28.7581 37.25 26.7069 37.25 24.5H35.25C35.25 26.3556 34.7886 28.0544 33.8656 29.6163L35.5875 30.6337ZM37.25 24.5C37.25 22.2931 36.6958 20.2419 35.5875 18.3663L33.8656 19.3837C34.7886 20.9456 35.25 22.6444 35.25 24.5H37.25ZM35.5875 18.3663C34.486 16.5023 32.9977 15.014 31.1337 13.9125L30.1163 15.6344C31.6898 16.5642 32.9358 17.8102 33.8656 19.3837L35.5875 18.3663ZM31.1337 13.9125C29.2581 12.8042 27.2069 12.25 25 12.25V14.25C26.8556 14.25 28.5544 14.7114 30.1163 15.6344L31.1337 13.9125ZM25 18C26.1971 18 27.2713 18.2884 28.2443 18.8588L29.2557 17.1334C27.9631 16.3756 26.5373 16 25 16V18ZM28.257 18.8661C29.2714 19.4409 30.0591 20.2286 30.6339 21.243L32.3739 20.257C31.6206 18.9276 30.5724 17.8794 29.243 17.1261L28.257 18.8661ZM30.6412 21.2557C31.2116 22.2287 31.5 23.3029 31.5 24.5H33.5C33.5 22.9627 33.1244 21.5369 32.3666 20.2443L30.6412 21.2557ZM31.5 24.5C31.5 25.6971 31.2114 26.7964 30.6339 27.8156L32.3739 28.8016C33.1245 27.477 33.5 26.0373 33.5 24.5H31.5ZM30.6412 27.8029C30.0685 28.7798 29.2799 29.5543 28.257 30.1339L29.243 31.8739C30.5639 31.1254 31.6112 30.103 32.3666 28.8143L30.6412 27.8029ZM28.2443 30.1412C27.2713 30.7116 26.1971 31 25 31V33C26.5373 33 27.9631 32.6244 29.2557 31.8666L28.2443 30.1412ZM25 31C23.8029 31 22.7036 30.7114 21.6844 30.1339L20.6984 31.8739C22.023 32.6245 23.4627 33 25 33V31ZM21.6971 30.1412C20.7119 29.5636 19.9363 28.7881 19.3588 27.8029L17.6334 28.8143C18.384 30.0947 19.4053 31.116 20.6857 31.8666L21.6971 30.1412ZM19.3661 27.8156C18.7886 26.7964 18.5 25.6971 18.5 24.5H16.5C16.5 26.0373 16.8755 27.477 17.6261 28.8016L19.3661 27.8156ZM18.5 24.5C18.5 23.3029 18.7884 22.2287 19.3588 21.2557L17.6334 20.2443C16.8756 21.5369 16.5 22.9627 16.5 24.5H18.5ZM19.3661 21.243C19.9457 20.2201 20.7202 19.4315 21.6971 18.8588L20.6857 17.1334C19.397 17.8888 18.3746 18.9361 17.6261 20.257L19.3661 21.243ZM21.6844 18.8661C22.7036 18.2886 23.8029 18 25 18V16C23.4627 16 22.023 16.3755 20.6984 17.1261L21.6844 18.8661ZM25 19.75C23.6815 19.75 22.5283 20.2254 21.5976 21.1562L23.0118 22.5704C23.5654 22.0168 24.2091 21.75 25 21.75V19.75ZM21.5976 21.1562C20.6947 22.0591 20.25 23.198 20.25 24.5H22.25C22.25 23.6927 22.5085 23.0737 23.0118 22.5704L21.5976 21.1562ZM20.25 24.5C20.25 25.8016 20.6936 26.9487 21.5787 27.8831L23.0306 26.5076C22.5096 25.9575 22.25 25.3078 22.25 24.5H20.25ZM21.6169 27.9213C22.5513 28.8064 23.6984 29.25 25 29.25V27.25C24.1922 27.25 23.5425 26.9904 22.9924 26.4694L21.6169 27.9213ZM25 29.25C26.302 29.25 27.4409 28.8053 28.3438 27.9024L26.9296 26.4882C26.4263 26.9915 25.8073 27.25 25 27.25V29.25ZM28.3438 27.9024C29.2746 26.9717 29.75 25.8185 29.75 24.5H27.75C27.75 25.2909 27.4832 25.9346 26.9296 26.4882L28.3438 27.9024ZM29.75 24.5C29.75 23.1805 29.273 22.0359 28.3245 21.1373L26.949 22.5892C27.4848 23.0969 27.75 23.7101 27.75 24.5H29.75ZM28.3627 21.1755C27.4641 20.227 26.3195 19.75 25 19.75V21.75C25.7899 21.75 26.4031 22.0152 26.9108 22.551L28.3627 21.1755Z" fill="#4C4C4C" mask="url(#path-1-outside-1_1_230)"/>
</svg>
