<svg width="46" height="47" viewBox="0 0 46 47" fill="none" xmlns="http://www.w3.org/2000/svg">
<path d="M17.875 0.9375C16.9635 0.9375 16.2148 1.23047 15.6289 1.81641C15.043 2.40234 14.75 3.15104 14.75 4.0625V5.625H0.6875V36.875H18.168C17.9727 35.8659 17.875 34.8242 17.875 33.75H3.8125V23.4961C4.82161 24.082 5.86328 24.375 6.9375 24.375H21C21.8789 23.1706 22.9206 22.1289 24.125 21.25H6.9375C5.99349 21.25 5.22852 20.9733 4.64258 20.4199C4.08919 19.834 3.8125 19.069 3.8125 18.125V8.75H38.1875V18.125C38.1875 18.418 38.1712 18.6458 38.1387 18.8086C39.2454 19.1667 40.3034 19.6387 41.3125 20.2246V5.625H27.25V4.0625C27.25 3.15104 26.957 2.40234 26.3711 1.81641C25.7852 1.23047 25.0365 0.9375 24.125 0.9375H17.875ZM17.875 4.0625H24.125V5.625H17.875V4.0625ZM10.0625 15V19.6875H13.1875V15H10.0625ZM28.8125 15V18.8574C29.3333 18.6947 29.8542 18.5645 30.375 18.4668C30.8958 18.3366 31.4167 18.2552 31.9375 18.2227V15H28.8125ZM33.5 21.25C31.2539 21.25 29.1706 21.8197 27.25 22.959C25.3294 24.0658 23.7995 25.5794 22.6602 27.5C21.5534 29.4206 21 31.5039 21 33.75C21 35.9961 21.5534 38.0794 22.6602 40C23.7995 41.9206 25.3294 43.4342 27.25 44.541C29.1706 45.6803 31.2539 46.25 33.5 46.25C35.7461 46.25 37.8294 45.6803 39.75 44.541C41.6706 43.4342 43.1842 41.9206 44.291 40C45.4303 38.0794 46 35.9961 46 33.75C46 31.5039 45.4303 29.4206 44.291 27.5C43.1842 25.5794 41.6706 24.0658 39.75 22.959C37.8294 21.8197 35.7461 21.25 33.5 21.25ZM33.5 24.375C35.1927 24.375 36.7552 24.7982 38.1875 25.6445C39.6198 26.4909 40.7591 27.6302 41.6055 29.0625C42.4518 30.4948 42.875 32.0573 42.875 33.75C42.875 35.4427 42.4518 37.0052 41.6055 38.4375C40.7591 39.8698 39.6198 41.0091 38.1875 41.8555C36.7552 42.7018 35.1927 43.125 33.5 43.125C31.8073 43.125 30.2448 42.7018 28.8125 41.8555C27.3802 41.0091 26.2409 39.8698 25.3945 38.4375C24.5482 37.0052 24.125 35.4427 24.125 33.75C24.125 32.0573 24.5482 30.4948 25.3945 29.0625C26.2409 27.6302 27.3802 26.4909 28.8125 25.6445C30.2448 24.7982 31.8073 24.375 33.5 24.375ZM31.9375 25.9375V35.3125H39.75V32.1875H35.0625V25.9375H31.9375Z" fill="#3F51B5"/>
</svg>
