<svg width="34" height="51" viewBox="0 0 34 51" fill="none" xmlns="http://www.w3.org/2000/svg">
<mask id="path-1-outside-1_1_226" maskUnits="userSpaceOnUse" x="-2" y="-1" width="38" height="53" fill="black">
<rect fill="white" x="-2" y="-1" width="38" height="53"/>
<path d="M0.125 0.125L8.15234 19.5195C5.69141 21.043 3.75781 23.0547 2.35156 25.5547C0.867188 28.1328 0.125 30.9258 0.125 33.9336C0.125 36.9414 0.886719 39.7539 2.41016 42.3711C3.93359 44.9102 5.96484 46.9414 8.50391 48.4648C11.1211 49.9883 13.9531 50.75 17 50.75C20.0469 50.75 22.8789 49.9883 25.4961 48.4648C28.0352 46.9414 30.0664 44.9102 31.5898 42.3711C33.1133 39.7539 33.875 36.9414 33.875 33.9336C33.875 30.9258 33.1328 28.1328 31.6484 25.5547C30.2422 23.0547 28.3281 21.0625 25.9062 19.5781L33.875 0.125H29.832L22.5078 17.9375C21.2188 17.5078 19.9297 17.2148 18.6406 17.0586L25.6133 0.125H21.5703L14.5391 17.1758C13.4844 17.332 12.4688 17.5859 11.4922 17.9375L4.16797 0.125H0.125ZM8.38672 0.125L13.1914 11.7266L15.1836 6.74609L12.4297 0.125H8.38672ZM17 20.75C19.3828 20.75 21.5703 21.3359 23.5625 22.5078C25.5938 23.6797 27.1953 25.2812 28.3672 27.3125C29.5391 29.3047 30.125 31.4922 30.125 33.875C30.125 36.2578 29.5391 38.4648 28.3672 40.4961C27.1953 42.4883 25.5938 44.0703 23.5625 45.2422C21.5703 46.4141 19.3828 47 17 47C14.6172 47 12.4102 46.4141 10.3789 45.2422C8.38672 44.0703 6.80469 42.4883 5.63281 40.4961C4.46094 38.4648 3.875 36.2578 3.875 33.875C3.875 31.4922 4.46094 29.3047 5.63281 27.3125C6.80469 25.2812 8.38672 23.6797 10.3789 22.5078C12.4102 21.3359 14.6172 20.75 17 20.75ZM17 26.668L14.832 31.5898L9.5 32.1758L13.4844 35.75L12.3711 41.0234L17 38.3281L21.6289 41.0234L20.5156 35.75L24.5 32.1758L19.168 31.5898L17 26.668Z"/>
</mask>
<path d="M0.125 0.125V-0.875H-1.37117L-0.798983 0.507434L0.125 0.125ZM8.15234 19.5195L8.6787 20.3698L9.40137 19.9224L9.07633 19.1371L8.15234 19.5195ZM2.35156 25.5547L3.21823 26.0537L3.22314 26.0449L2.35156 25.5547ZM2.41016 42.3711L1.54583 42.8742L1.55266 42.8856L2.41016 42.3711ZM8.50391 48.4648L7.98936 49.3224L8.00084 49.3291L8.50391 48.4648ZM25.4961 48.4648L25.9992 49.3292L26.0106 49.3223L25.4961 48.4648ZM31.5898 42.3711L32.4474 42.8856L32.4541 42.8742L31.5898 42.3711ZM31.6484 25.5547L30.7768 26.045L30.7818 26.0537L31.6484 25.5547ZM25.9062 19.5781L24.9809 19.1991L24.6584 19.9862L25.3837 20.4307L25.9062 19.5781ZM33.875 0.125L34.8004 0.504067L35.3653 -0.875H33.875V0.125ZM29.832 0.125V-0.875H29.162L28.9072 -0.255291L29.832 0.125ZM22.5078 17.9375L22.1916 18.8862L23.0775 19.1815L23.4327 18.3178L22.5078 17.9375ZM18.6406 17.0586L17.7159 16.6778L17.2155 17.8932L18.5203 18.0513L18.6406 17.0586ZM25.6133 0.125L26.538 0.50575L27.1065 -0.875H25.6133V0.125ZM21.5703 0.125V-0.875H20.901L20.6458 -0.256229L21.5703 0.125ZM14.5391 17.1758L14.6856 18.165L15.2471 18.0818L15.4635 17.557L14.5391 17.1758ZM11.4922 17.9375L10.5673 18.3178L10.931 19.2023L11.8309 18.8784L11.4922 17.9375ZM4.16797 0.125L5.09284 -0.255291L4.83802 -0.875H4.16797V0.125ZM8.38672 0.125V-0.875H6.89021L7.46282 0.507627L8.38672 0.125ZM13.1914 11.7266L12.2675 12.1092L13.2075 14.3789L14.1199 12.098L13.1914 11.7266ZM15.1836 6.74609L16.1121 7.11748L16.2636 6.73872L16.1069 6.36206L15.1836 6.74609ZM12.4297 0.125L13.353 -0.259035L13.0968 -0.875H12.4297V0.125ZM23.5625 22.5078L23.0555 23.3698L23.0628 23.374L23.5625 22.5078ZM28.3672 27.3125L27.501 27.8122L27.5053 27.8195L28.3672 27.3125ZM28.3672 40.4961L29.2292 41.0031L29.2334 40.9958L28.3672 40.4961ZM23.5625 45.2422L23.0628 44.376L23.0555 44.3803L23.5625 45.2422ZM10.3789 45.2422L9.87187 46.1042L9.87918 46.1084L10.3789 45.2422ZM5.63281 40.4961L4.7666 40.9958L4.77088 41.0031L5.63281 40.4961ZM5.63281 27.3125L6.49478 27.8195L6.499 27.8122L5.63281 27.3125ZM10.3789 22.5078L9.87917 21.6416L9.87189 21.6459L10.3789 22.5078ZM17 26.668L17.9152 26.2649L17 24.1872L16.0848 26.2649L17 26.668ZM14.832 31.5898L14.9413 32.5839L15.5147 32.5209L15.7472 31.9929L14.832 31.5898ZM9.5 32.1758L9.39077 31.1818L7.1668 31.4262L8.83224 32.9202L9.5 32.1758ZM13.4844 35.75L14.4628 35.9566L14.5821 35.3914L14.1521 35.0056L13.4844 35.75ZM12.3711 41.0234L11.3927 40.8169L10.9273 43.0213L12.8743 41.8876L12.3711 41.0234ZM17 38.3281L17.5032 37.464L17 37.171L16.4968 37.464L17 38.3281ZM21.6289 41.0234L21.1257 41.8876L23.0727 43.0213L22.6073 40.8169L21.6289 41.0234ZM20.5156 35.75L19.8479 35.0056L19.4179 35.3914L19.5372 35.9566L20.5156 35.75ZM24.5 32.1758L25.1678 32.9202L26.8332 31.4262L24.6092 31.1818L24.5 32.1758ZM19.168 31.5898L18.2528 31.9929L18.4853 32.5209L19.0587 32.5839L19.168 31.5898ZM-0.798983 0.507434L7.22836 19.902L9.07633 19.1371L1.04898 -0.257434L-0.798983 0.507434ZM7.62599 18.6693C5.02278 20.2808 2.96984 22.4158 1.47999 25.0644L3.22314 26.0449C4.54579 23.6936 6.36003 21.8052 8.6787 20.3698L7.62599 18.6693ZM1.48494 25.0557C-0.0878286 27.7874 -0.875 30.7527 -0.875 33.9336H1.125C1.125 31.0989 1.8222 28.4783 3.21819 26.0537L1.48494 25.0557ZM-0.875 33.9336C-0.875 37.1194 -0.0658026 40.1053 1.54591 42.8742L3.2744 41.868C1.83924 39.4025 1.125 36.7634 1.125 33.9336H-0.875ZM1.55266 42.8856C3.16055 45.5654 5.3096 47.7145 7.98941 49.3223L9.0184 47.6073C6.62009 46.1684 4.70664 44.2549 3.26765 41.8566L1.55266 42.8856ZM8.00084 49.3291C10.7718 50.942 13.7775 51.75 17 51.75V49.75C14.1287 49.75 11.4704 49.0345 9.00698 47.6006L8.00084 49.3291ZM17 51.75C20.2225 51.75 23.2282 50.942 25.9992 49.3291L24.993 47.6006C22.5296 49.0345 19.8713 49.75 17 49.75V51.75ZM26.0106 49.3223C28.6904 47.7145 30.8395 45.5654 32.4473 42.8856L30.7323 41.8566C29.2934 44.2549 27.3799 46.1684 24.9816 47.6073L26.0106 49.3223ZM32.4541 42.8742C34.0658 40.1053 34.875 37.1194 34.875 33.9336H32.875C32.875 36.7634 32.1608 39.4025 30.7256 41.868L32.4541 42.8742ZM34.875 33.9336C34.875 30.7527 34.0878 27.7874 32.5151 25.0557L30.7818 26.0537C32.1778 28.4783 32.875 31.0989 32.875 33.9336H34.875ZM32.52 25.0644C31.0311 22.4174 28.9975 20.2999 26.4288 18.7255L25.3837 20.4307C27.6588 21.8251 29.4533 23.692 30.7769 26.0449L32.52 25.0644ZM26.8316 19.9572L34.8004 0.504067L32.9496 -0.254067L24.9809 19.1991L26.8316 19.9572ZM33.875 -0.875H29.832V1.125H33.875V-0.875ZM28.9072 -0.255291L21.5829 17.5572L23.4327 18.3178L30.7569 0.505291L28.9072 -0.255291ZM22.824 16.9888C21.4743 16.5389 20.1196 16.2305 18.761 16.0659L18.5203 18.0513C19.7397 18.1991 20.9632 18.4767 22.1916 18.8862L22.824 16.9888ZM19.5653 17.4393L26.538 0.50575L24.6886 -0.25575L17.7159 16.6778L19.5653 17.4393ZM25.6133 -0.875H21.5703V1.125H25.6133V-0.875ZM20.6458 -0.256229L13.6146 16.7946L15.4635 17.557L22.4948 0.506229L20.6458 -0.256229ZM14.3925 16.1866C13.2741 16.3523 12.194 16.622 11.1535 16.9966L11.8309 18.8784C12.7435 18.5499 13.6946 18.3118 14.6856 18.165L14.3925 16.1866ZM12.4171 17.5572L5.09284 -0.255291L3.2431 0.505291L10.5673 18.3178L12.4171 17.5572ZM4.16797 -0.875H0.125V1.125H4.16797V-0.875ZM7.46282 0.507627L12.2675 12.1092L14.1153 11.3439L9.31062 -0.257627L7.46282 0.507627ZM14.1199 12.098L16.1121 7.11748L14.2551 6.3747L12.2629 11.3552L14.1199 12.098ZM16.1069 6.36206L13.353 -0.259035L11.5064 0.509035L14.2603 7.13013L16.1069 6.36206ZM12.4297 -0.875H8.38672V1.125H12.4297V-0.875ZM17 21.75C19.2103 21.75 21.2219 22.2912 23.0555 23.3697L24.0695 21.6459C21.9188 20.3807 19.5553 19.75 17 19.75V21.75ZM23.0628 23.374C24.9418 24.458 26.417 25.9332 27.501 27.8122L29.2334 26.8128C27.9737 24.6293 26.2457 22.9013 24.0622 21.6416L23.0628 23.374ZM27.5053 27.8195C28.5838 29.6531 29.125 31.6647 29.125 33.875H31.125C31.125 31.3197 30.4943 28.9562 29.2291 26.8055L27.5053 27.8195ZM29.125 33.875C29.125 36.0854 28.5837 38.1196 27.501 39.9964L29.2334 40.9958C30.4944 38.8101 31.125 36.4303 31.125 33.875H29.125ZM27.5053 39.9891C26.4224 41.83 24.9466 43.2892 23.0628 44.376L24.0622 46.1084C26.2409 44.8514 27.9683 43.1466 29.2291 41.0031L27.5053 39.9891ZM23.0555 44.3803C21.2219 45.4588 19.2103 46 17 46V48C19.5553 48 21.9188 47.3693 24.0695 46.1041L23.0555 44.3803ZM17 46C14.7897 46 12.7554 45.4587 10.8786 44.376L9.87918 46.1084C12.0649 47.3694 14.4447 48 17 48V46ZM10.8859 44.3803C9.04029 43.2946 7.58041 41.8347 6.49475 39.9891L4.77088 41.0031C6.02896 43.1419 7.73314 44.846 9.87189 46.1041L10.8859 44.3803ZM6.499 39.9964C5.41626 38.1196 4.875 36.0854 4.875 33.875H2.875C2.875 36.4303 3.50562 38.8101 4.76663 40.9958L6.499 39.9964ZM4.875 33.875C4.875 31.6647 5.41615 29.6531 6.49475 27.8195L4.77088 26.8055C3.50572 28.9562 2.875 31.3197 2.875 33.875H4.875ZM6.499 27.8122C7.5858 25.9284 9.04502 24.4526 10.8859 23.3697L9.87189 21.6459C7.72841 22.9067 6.02358 24.6341 4.76663 26.8128L6.499 27.8122ZM10.8786 23.374C12.7554 22.2913 14.7897 21.75 17 21.75V19.75C14.4447 19.75 12.0649 20.3806 9.87918 21.6416L10.8786 23.374ZM16.0848 26.2649L13.9169 31.1867L15.7472 31.9929L17.9152 27.0711L16.0848 26.2649ZM14.7228 30.5958L9.39077 31.1818L9.60923 33.1698L14.9413 32.5839L14.7228 30.5958ZM8.83224 32.9202L12.8166 36.4944L14.1521 35.0056L10.1678 31.4314L8.83224 32.9202ZM12.5059 35.5434L11.3927 40.8169L13.3495 41.23L14.4628 35.9566L12.5059 35.5434ZM12.8743 41.8876L17.5032 39.1923L16.4968 37.464L11.8679 40.1593L12.8743 41.8876ZM16.4968 39.1923L21.1257 41.8876L22.1321 40.1593L17.5032 37.464L16.4968 39.1923ZM22.6073 40.8169L21.4941 35.5434L19.5372 35.9566L20.6505 41.23L22.6073 40.8169ZM21.1834 36.4944L25.1678 32.9202L23.8322 31.4314L19.8479 35.0056L21.1834 36.4944ZM24.6092 31.1818L19.2772 30.5958L19.0587 32.5839L24.3908 33.1698L24.6092 31.1818ZM20.0831 31.1867L17.9152 26.2649L16.0848 27.0711L18.2528 31.9929L20.0831 31.1867Z" fill="#4C4C4C" mask="url(#path-1-outside-1_1_226)"/>
</svg>
