 <svg
                    width="28"
                    height="29"
                    viewBox="0 0 28 29"
                    fill="none"
                    xmlns="http://www.w3.org/2000/svg"
                  >
                    <path
                      d="M15.8125 0.75V2.625C17.668 2.625 19.4062 3.09375 21.0273 4.03125C22.5703 4.94922 23.8008 6.17969 24.7188 7.72266C25.6562 9.34375 26.125 11.082 26.125 12.9375H28C28 10.7305 27.4434 8.67969 26.3301 6.78516C25.2559 4.94922 23.8008 3.49414 21.9648 2.41992C20.0703 1.30664 18.0195 0.75 15.8125 0.75ZM6.11523 3.5625C5.58789 3.5625 5.12891 3.72852 4.73828 4.06055L1.7207 7.13672L1.80859 7.07812C1.32031 7.48828 0.998047 7.99609 0.841797 8.60156C0.705078 9.20703 0.744141 9.79297 0.958984 10.3594C1.50586 11.8828 2.23828 13.4453 3.15625 15.0469C4.44531 17.2539 5.97852 19.2363 7.75586 20.9941C10.6074 23.8652 14.1523 26.1309 18.3906 27.791H18.4199C18.9863 27.9863 19.5527 28.0254 20.1191 27.9082C20.7051 27.791 21.2227 27.5371 21.6719 27.1465L24.6309 24.1875C25.0215 23.7969 25.2168 23.3184 25.2168 22.752C25.2168 22.166 25.0215 21.6777 24.6309 21.2871L20.793 17.4199C20.4023 17.0293 19.9141 16.834 19.3281 16.834C18.7422 16.834 18.2539 17.0293 17.8633 17.4199L16.0176 19.2949C14.5332 18.5918 13.2441 17.7227 12.1504 16.6875C11.0566 15.6328 10.1875 14.3535 9.54297 12.8496L11.418 10.9746C11.8281 10.5449 12.0332 10.0371 12.0332 9.45117C12.0332 8.8457 11.7988 8.35742 11.3301 7.98633L11.418 8.07422L7.49219 4.06055C7.10156 3.72852 6.64258 3.5625 6.11523 3.5625ZM15.8125 4.5V6.375C17.0039 6.375 18.0977 6.66797 19.0938 7.25391C20.1094 7.83984 20.9102 8.64062 21.4961 9.65625C22.082 10.6523 22.375 11.7461 22.375 12.9375H24.25C24.25 11.4141 23.8691 9.99805 23.1074 8.68945C22.3457 7.41992 21.3301 6.4043 20.0605 5.64258C18.752 4.88086 17.3359 4.5 15.8125 4.5ZM6.11523 5.4375C6.17383 5.4375 6.24219 5.4668 6.32031 5.52539L10.1582 9.45117C10.1777 9.5293 10.1582 9.59766 10.0996 9.65625L7.31641 12.4102L7.52148 12.9961L7.90234 13.8164C8.21484 14.4805 8.57617 15.125 8.98633 15.75C9.55273 16.6289 10.1777 17.3809 10.8613 18.0059C11.7793 18.9043 12.8828 19.7246 14.1719 20.4668C14.8164 20.8379 15.3633 21.1113 15.8125 21.2871L16.3984 21.5508L19.2402 18.709C19.2793 18.6699 19.3086 18.6504 19.3281 18.6504C19.3477 18.6504 19.377 18.6699 19.416 18.709L23.3711 22.6641C23.4102 22.7031 23.4297 22.7324 23.4297 22.752C23.4297 22.752 23.4102 22.7715 23.3711 22.8105L20.4414 25.7109C20.0117 26.082 19.543 26.1797 19.0352 26.0039C15.0508 24.4609 11.7305 22.3516 9.07422 19.6758C7.43359 18.0352 5.99805 16.1699 4.76758 14.0801C3.88867 12.5762 3.20508 11.1211 2.7168 9.71484V9.68555C2.63867 9.50977 2.62891 9.30469 2.6875 9.07031C2.74609 8.81641 2.85352 8.62109 3.00977 8.48438L5.91016 5.52539C5.96875 5.4668 6.03711 5.4375 6.11523 5.4375ZM15.8125 8.25V10.125C16.5938 10.125 17.2578 10.3984 17.8047 10.9453C18.3516 11.4922 18.625 12.1562 18.625 12.9375H20.5C20.5 12.0977 20.2852 11.3164 19.8555 10.5938C19.4453 9.87109 18.8789 9.30469 18.1562 8.89453C17.4336 8.46484 16.6523 8.25 15.8125 8.25Z"
                      fill="white"
                    />
                  </svg>