<svg width="13" height="16" viewBox="0 0 13 16" fill="none" xmlns="http://www.w3.org/2000/svg">
<path d="M7.05859 0C5.97786 0 4.95573 0.227865 3.99219 0.683594C3.02865 1.13932 2.26042 1.77083 1.6875 2.57812C1.0625 3.45052 0.75 4.4401 0.75 5.54688C0.75 6.22396 0.867188 6.83594 1.10156 7.38281C1.29688 7.86458 1.55729 8.25521 1.88281 8.55469C2.16927 8.8151 2.44922 8.94531 2.72266 8.94531C2.85286 8.94531 2.97005 8.79557 3.07422 8.49609C3.15234 8.2487 3.19141 8.03385 3.19141 7.85156C3.19141 7.78646 3.13281 7.65625 3.01562 7.46094C2.84635 7.1875 2.72917 6.95964 2.66406 6.77734C2.53385 6.45182 2.46875 6.11328 2.46875 5.76172C2.46875 4.94141 2.65755 4.21224 3.03516 3.57422C3.41276 2.92318 3.93359 2.41536 4.59766 2.05078C5.26172 1.6862 5.9974 1.50391 6.80469 1.50391C7.89844 1.50391 8.77083 1.79688 9.42188 2.38281C10.125 2.99479 10.4766 3.83464 10.4766 4.90234C10.4766 5.55339 10.3919 6.20443 10.2227 6.85547C10.0273 7.66276 9.73438 8.30078 9.34375 8.76953C8.88802 9.34245 8.33464 9.62891 7.68359 9.62891C7.29297 9.62891 6.95443 9.50521 6.66797 9.25781C6.39453 8.9974 6.25781 8.67188 6.25781 8.28125C6.25781 8.02083 6.29688 7.72786 6.375 7.40234C6.41406 7.22005 6.49219 6.93359 6.60938 6.54297C6.73958 6.15234 6.83073 5.85938 6.88281 5.66406C6.96094 5.33854 7 5.03906 7 4.76562C7 4.28385 6.85026 3.91927 6.55078 3.67188C6.29036 3.46354 5.96484 3.39844 5.57422 3.47656C5.19661 3.55469 4.87109 3.76302 4.59766 4.10156C4.3112 4.49219 4.16797 4.98047 4.16797 5.56641C4.16797 6.20443 4.26562 6.72526 4.46094 7.12891L4.24609 8.04688C3.93359 9.33594 3.71224 10.319 3.58203 10.9961C3.36068 12.1549 3.25 13.0859 3.25 13.7891C3.25 14.0755 3.28255 14.5117 3.34766 15.0977L3.38672 15.5273L3.42578 15.5859C3.45182 15.612 3.46484 15.625 3.46484 15.625C3.47786 15.625 3.50391 15.6185 3.54297 15.6055L3.60156 15.5859C4.00521 15.0391 4.3112 14.5573 4.51953 14.1406C4.72786 13.763 4.89714 13.3594 5.02734 12.9297C5.10547 12.6562 5.22266 12.194 5.37891 11.543C5.50911 10.931 5.6263 10.4297 5.73047 10.0391C5.89974 10.3906 6.20573 10.6706 6.64844 10.8789C7.03906 11.0612 7.44271 11.1523 7.85938 11.1523C8.90104 11.1523 9.79948 10.8398 10.5547 10.2148C11.2318 9.66797 11.7526 8.90625 12.1172 7.92969C12.4557 7.04427 12.625 6.10026 12.625 5.09766C12.625 4.09505 12.3581 3.19661 11.8242 2.40234C11.3294 1.64714 10.6523 1.0612 9.79297 0.644531C8.94661 0.214844 8.03516 0 7.05859 0Z" fill="white"/>
</svg>
