<svg width="16" height="13" viewBox="0 0 16 13" fill="none" xmlns="http://www.w3.org/2000/svg">
<path d="M15.5 1.85156C14.9401 2.09896 14.3542 2.26172 13.7422 2.33984C14.0547 2.14453 14.3281 1.90365 14.5625 1.61719C14.7969 1.31771 14.9727 0.985677 15.0898 0.621094C14.4779 0.985677 13.8268 1.23958 13.1367 1.38281C12.8503 1.07031 12.5117 0.829427 12.1211 0.660156C11.7305 0.490885 11.3203 0.40625 10.8906 0.40625C10.3307 0.40625 9.81641 0.542969 9.34766 0.816406C8.87891 1.08984 8.5013 1.46745 8.21484 1.94922C7.94141 2.41797 7.80469 2.92578 7.80469 3.47266C7.80469 3.72005 7.83073 3.95443 7.88281 4.17578C6.63281 4.1237 5.44792 3.80469 4.32812 3.21875C3.2474 2.67188 2.31641 1.92318 1.53516 0.972656C1.26172 1.44141 1.125 1.95573 1.125 2.51562C1.125 3.03646 1.2487 3.52474 1.49609 3.98047C1.74349 4.4362 2.07552 4.80078 2.49219 5.07422C1.9974 5.0612 1.53516 4.93099 1.10547 4.68359V4.72266C1.10547 5.46484 1.33984 6.1224 1.80859 6.69531C2.27734 7.25521 2.86328 7.60677 3.56641 7.75C3.30599 7.8151 3.03906 7.84766 2.76562 7.84766C2.57031 7.84766 2.375 7.83464 2.17969 7.80859C2.375 8.42057 2.73307 8.92839 3.25391 9.33203C3.78776 9.72266 4.38672 9.92448 5.05078 9.9375C4.51693 10.3542 3.92448 10.6797 3.27344 10.9141C2.6224 11.1484 1.94531 11.2656 1.24219 11.2656C0.994792 11.2526 0.747396 11.2331 0.5 11.207C1.1901 11.6497 1.93229 11.9883 2.72656 12.2227C3.53385 12.4701 4.36068 12.5938 5.20703 12.5938C6.57422 12.5938 7.83073 12.3268 8.97656 11.793C10.0182 11.3112 10.9297 10.6276 11.7109 9.74219C12.4401 8.92188 13.0065 7.98438 13.4102 6.92969C13.7878 5.90104 13.9766 4.8724 13.9766 3.84375L13.957 3.43359C14.569 3.00391 15.0833 2.47656 15.5 1.85156Z" fill="white"/>
</svg>
