<svg width="54" height="52" viewBox="0 0 54 52" fill="none" xmlns="http://www.w3.org/2000/svg">
<mask id="path-1-outside-1_1_222" maskUnits="userSpaceOnUse" x="-3" y="-2" width="60" height="56" fill="black">
<rect fill="white" x="-3" y="-2" width="60" height="56"/>
<path d="M53.8945 19.9961L34.793 18.0039L27 0.484375L19.207 18.0039L0.105469 19.9961L14.3438 32.8867L10.418 51.6367L27 42.0273L43.6406 51.6367L39.6562 32.8867L53.8945 19.9961Z"/>
</mask>
<path d="M53.8945 19.9961L54.5657 20.7374L56.2264 19.2339L53.9983 19.0015L53.8945 19.9961ZM34.793 18.0039L33.8793 18.4103L34.1142 18.9385L34.6892 18.9985L34.793 18.0039ZM27 0.484375L27.9137 0.0779529L27 -1.97612L26.0863 0.0779529L27 0.484375ZM19.207 18.0039L19.3108 18.9985L19.8858 18.9385L20.1207 18.4103L19.207 18.0039ZM0.105469 19.9961L0.00173688 19.0015L-2.22641 19.2339L-0.565684 20.7374L0.105469 19.9961ZM14.3438 32.8867L15.3225 33.0917L15.4401 32.5303L15.0149 32.1454L14.3438 32.8867ZM10.418 51.6367L9.43919 51.4318L8.97979 53.6259L10.9194 52.5019L10.418 51.6367ZM27 42.0273L27.5001 41.1614L26.9991 40.8721L26.4986 41.1621L27 42.0273ZM43.6406 51.6367L43.1406 52.5027L45.0857 53.6259L44.6188 51.4289L43.6406 51.6367ZM39.6562 32.8867L38.9851 32.1454L38.5585 32.5316L38.6781 33.0946L39.6562 32.8867ZM53.9983 19.0015L34.8967 17.0093L34.6892 18.9985L53.7908 20.9907L53.9983 19.0015ZM35.7067 17.5975L27.9137 0.0779529L26.0863 0.890797L33.8793 18.4103L35.7067 17.5975ZM26.0863 0.0779529L18.2933 17.5975L20.1207 18.4103L27.9137 0.890797L26.0863 0.0779529ZM19.1033 17.0093L0.00173688 19.0015L0.209201 20.9907L19.3108 18.9985L19.1033 17.0093ZM-0.565684 20.7374L13.6726 33.628L15.0149 32.1454L0.776622 19.2548L-0.565684 20.7374ZM13.365 32.6818L9.43919 51.4318L11.3967 51.8417L15.3225 33.0917L13.365 32.6818ZM10.9194 52.5019L27.5014 42.8926L26.4986 41.1621L9.91657 50.7715L10.9194 52.5019ZM26.4999 42.8933L43.1406 52.5027L44.1407 50.7707L27.5001 41.1614L26.4999 42.8933ZM44.6188 51.4289L40.6344 32.6789L38.6781 33.0946L42.6625 51.8446L44.6188 51.4289ZM40.3274 33.628L54.5657 20.7374L53.2234 19.2548L38.9851 32.1454L40.3274 33.628Z" fill="#4C4C4C" mask="url(#path-1-outside-1_1_222)"/>
</svg>
